# xmcd
#
# Track frame offsets:
#	187
#	6225
#	30840
#	53885
#	76405
#	101852
#	140862
#	168767
#	207007
#	232025
#	253882
#	283512
#	304640
#	308470
#
# Disc length: 4445 seconds
#
# Revision: 2
# Processed by: cddbd v1.5.2PL0 Copyright (c) Steve Scherf et al.
# Submitted via: EZCDAudioConverter 1.3.4.1
#
DISCID=b5115b0e
DTITLE=Martine Girault - Revival
DYEAR=1995
DGENRE=R&B
TTITLE0=Intro/Interlude
TTITLE1=These Are The Best Days Of Your Life
TTITLE2=Soulfully Yours
TTITLE3=Been Thinking About You
TTITLE4=Good Love
TTITLE5=Revival
TTITLE6=We've Got Tomorrow
TTITLE7=Special
TTITLE8=Don't Dog Me
TTITLE9=Love To Love You
TTITLE10=Bring Back Our Love
TTITLE11=I Wish
TTITLE12=Outro/Interlude
TTITLE13=These Are The Best Days Of Your Life (Extended Mix)
EXTD=
EXTT0=
EXTT1=
EXTT2=
EXTT3=
EXTT4=
EXTT5=
EXTT6=
EXTT7=
EXTT8=
EXTT9=
EXTT10=
EXTT11=
EXTT12=
EXTT13=
PLAYORDER=
